<svg width="42" height="76" viewBox="0 0 42 76" fill="none" xmlns="http://www.w3.org/2000/svg">
<path d="M0.4 76V0.351997H25.872C30.48 0.351997 34.064 1.41866 36.624 3.55199C39.184 5.68533 40.464 8.84267 40.464 13.024V21.856C40.464 24.16 40.1227 26.2507 39.44 28.128C38.8427 29.92 37.904 31.4133 36.624 32.608C35.5147 33.7173 34.192 34.4853 32.656 34.912C31.2053 35.3387 29.84 35.5947 28.56 35.68C30.096 35.68 31.5893 35.8507 33.04 36.192C34.4907 36.5333 35.8133 37.216 37.008 38.24C38.3733 39.4347 39.44 40.9707 40.208 42.848C41.0613 44.7253 41.488 47.0293 41.488 49.76V60.256C41.488 64.5227 40.7627 67.808 39.312 70.112C37.9467 72.3307 35.984 73.8667 33.424 74.72C30.9493 75.5733 27.9627 76 24.464 76H0.4ZM12.688 69.472H21.776C23.312 69.472 24.592 69.216 25.616 68.704C26.7253 68.192 27.5787 67.2107 28.176 65.76C28.7733 64.3093 29.072 62.2187 29.072 59.488V49.888C29.072 46.304 28.304 43.9573 26.768 42.848C25.3173 41.6533 23.3973 41.056 21.008 41.056H12.688V69.472ZM12.688 33.12H20.752C23.312 33.12 25.2747 32.352 26.64 30.816C28.0053 29.28 28.688 26.7627 28.688 23.264V15.2C28.688 12.384 28.048 10.336 26.768 9.056C25.5733 7.776 24.0373 7.13599 22.16 7.13599H12.688V33.12Z" fill="#EF4B24"/>
</svg>
